<?xml version="1.0" standalone="no"?>
<!DOCTYPE svg PUBLIC "-//W3C//DTD SVG 20010904//EN"
 "http://www.w3.org/TR/2001/REC-SVG-20010904/DTD/svg10.dtd">
<svg version="1.0" xmlns="http://www.w3.org/2000/svg"
 width="506.000000pt" height="320.000000pt" viewBox="0 0 506.000000 320.000000"
 preserveAspectRatio="xMidYMid meet">

<g transform="translate(0.000000,320.000000) scale(0.100000,-0.100000)"
fill="#000000" stroke="none">
<path d="M2416 2859 c-64 -9 -86 -22 -86 -50 0 -28 27 -37 79 -27 25 6 93 10
151 10 381 2 720 -251 835 -625 26 -83 29 -88 54 -85 24 3 26 6 25 53 -2 63
-50 185 -112 285 -86 139 -238 277 -387 352 -157 80 -376 114 -559 87z"/>
<path d="M3370 2790 c-8 -16 -3 -28 35 -72 156 -184 242 -348 287 -552 32
-142 32 -370 0 -501 -51 -206 -137 -369 -276 -530 -40 -46 -48 -60 -39 -73 21
-34 48 -25 103 35 107 117 213 305 260 463 66 220 67 480 4 703 -48 171 -149
352 -269 485 -59 64 -87 76 -105 42z"/>
<path d="M1635 2743 c-226 -258 -337 -599 -305 -936 12 -127 13 -131 47 -247
36 -118 82 -216 157 -328 114 -174 196 -241 212 -177 5 21 -2 34 -38 73 -199
213 -308 493 -308 791 0 287 95 545 280 760 67 78 76 114 30 119 -20 2 -36
-10 -75 -55z"/>
<path d="M2420 2514 c-108 -23 -204 -77 -290 -163 -122 -123 -180 -263 -180
-431 0 -168 58 -308 180 -431 128 -128 272 -185 454 -177 259 11 469 169 552
413 38 114 43 225 15 334 -50 192 -154 322 -330 410 -115 58 -263 75 -401 45z
m314 -88 c167 -60 297 -201 342 -371 18 -64 18 -206 0 -270 -48 -180 -183
-320 -366 -381 -81 -27 -234 -25 -320 5 -87 31 -192 102 -242 165 -138 173
-163 389 -69 581 78 158 220 264 401 299 54 10 190 -4 254 -28z"/>
<path d="M2585 2341 c-3 -6 4 -26 17 -43 17 -24 23 -50 26 -98 3 -58 0 -70
-27 -112 -39 -61 -91 -88 -169 -88 -95 0 -164 57 -197 164 -5 18 -6 18 -25 1
-10 -9 -31 -47 -46 -83 -24 -57 -28 -81 -28 -162 -1 -89 2 -100 35 -171 43
-89 86 -141 154 -184 98 -62 206 -83 314 -61 135 28 247 115 305 236 29 61 31
72 31 180 0 104 -3 120 -27 173 -64 136 -171 219 -325 251 -18 4 -34 3 -38 -3z
m18 -422 c28 -15 37 -28 37 -58 0 -59 -72 -82 -108 -36 -25 32 -16 75 19 92
29 15 26 15 52 2z"/>
<path d="M1634 1736 c-9 -36 55 -210 111 -304 161 -270 450 -444 765 -459 193
-9 295 17 273 72 -5 15 -16 16 -92 9 -318 -32 -565 55 -767 269 -90 96 -155
202 -191 314 -38 119 -40 123 -68 123 -18 0 -26 -7 -31 -24z"/>
<path d="M1693 663 c-8 -3 -13 -24 -13 -54 l0 -49 -35 0 c-46 0 -49 -27 -2
-32 l32 -3 5 -138 c6 -157 11 -167 83 -167 31 0 38 3 35 17 -2 12 -15 20 -38
23 l-35 5 0 130 0 130 43 3 c28 2 42 8 42 18 0 10 -12 14 -45 14 l-45 0 0 55
c0 54 -3 58 -27 48z"/>
<path d="M2343 663 c-8 -3 -13 -24 -13 -53 l0 -49 -37 -3 c-46 -4 -46 -21 -1
-28 l33 -5 3 -137 c2 -133 3 -138 27 -154 29 -19 90 -15 90 6 0 10 -13 17 -35
20 l-35 5 -3 132 -3 132 43 3 c55 4 56 22 1 26 l-43 3 0 55 c0 53 -3 57 -27
47z"/>
<path d="M4468 659 c-13 -7 -18 -23 -18 -54 0 -45 0 -45 -35 -45 -46 0 -49
-27 -2 -32 l32 -3 5 -133 c5 -126 6 -135 29 -153 13 -10 38 -19 57 -19 27 0
34 4 34 20 0 16 -7 20 -35 20 -44 0 -47 10 -43 155 l3 110 43 3 c28 2 42 8 42
17 0 9 -14 15 -42 17 l-43 3 -5 52 c-4 46 -7 51 -22 42z"/>
<path d="M520 645 c-10 -12 -10 -18 0 -30 9 -11 34 -15 100 -15 l88 0 7 -84
c4 -47 4 -115 0 -151 -6 -53 -12 -69 -33 -85 -39 -31 -69 -25 -112 21 -26 28
-43 40 -54 36 -28 -11 -17 -48 28 -93 48 -49 87 -56 151 -30 61 26 69 51 75
225 5 146 6 156 25 159 59 9 66 13 63 35 -3 22 -6 22 -164 25 -135 2 -163 0
-174 -13z"/>
<path d="M2029 651 c-74 -11 -122 -52 -135 -118 -5 -24 0 -37 25 -66 26 -29
43 -38 105 -51 81 -18 109 -40 109 -83 0 -66 -97 -85 -174 -34 -33 22 -47 27
-61 20 -25 -13 -23 -27 11 -58 34 -32 91 -51 152 -51 119 0 178 129 97 210
-28 28 -46 36 -145 60 -58 14 -71 40 -39 77 23 27 29 28 108 28 76 0 83 2 83
20 0 34 -64 56 -136 46z"/>
<path d="M4106 644 c-9 -24 12 -44 45 -44 l29 0 0 -154 c0 -164 -1 -166 -50
-166 -23 0 -32 -13 -24 -33 12 -33 188 -33 201 -1 7 20 -10 37 -39 39 -23 2
-23 3 -26 158 l-3 157 23 0 c33 0 51 14 46 36 -3 17 -14 19 -99 22 -83 2 -98
0 -103 -14z"/>
<path d="M1350 563 c-36 -13 -60 -47 -60 -83 0 -49 18 -63 118 -96 85 -27 114
-50 105 -85 -8 -30 -43 -49 -91 -49 -54 0 -77 12 -97 50 -28 55 -59 32 -33
-24 24 -54 116 -80 193 -54 55 18 85 71 65 117 -14 36 -60 63 -136 82 -59 14
-84 34 -84 66 0 18 9 28 36 39 48 20 99 9 126 -27 25 -33 48 -38 48 -11 0 22
-16 43 -50 66 -24 16 -107 21 -140 9z"/>
<path d="M2618 552 c-16 -9 -28 -20 -28 -24 0 -5 -4 -8 -10 -8 -5 0 -10 9 -10
20 0 13 -7 20 -20 20 -19 0 -20 -7 -20 -170 0 -163 1 -170 20 -170 19 0 20 7
20 103 1 156 30 207 120 207 34 0 41 3 36 16 -3 9 -6 18 -6 20 0 11 -79 1
-102 -14z"/>
<path d="M2854 556 c-63 -28 -98 -113 -83 -205 10 -66 38 -104 91 -126 65 -26
123 -13 170 36 21 22 38 46 38 54 0 22 -38 18 -45 -5 -11 -34 -54 -60 -101
-60 -57 0 -102 38 -111 93 l-6 37 138 0 138 0 -7 46 c-12 90 -70 144 -153 144
-21 -1 -52 -7 -69 -14z m144 -49 c22 -20 43 -75 35 -89 -2 -5 -53 -8 -114 -8
-121 0 -123 2 -94 65 31 64 120 81 173 32z"/>
<path d="M3225 554 c-38 -19 -51 -33 -60 -61 -10 -35 20 -29 54 9 25 28 35 32
80 32 62 0 92 -24 94 -75 l2 -34 -80 -5 c-98 -7 -143 -29 -163 -82 -39 -102
97 -164 203 -92 44 30 45 30 45 -1 0 -19 5 -25 21 -25 20 0 21 3 17 138 -4
147 -9 167 -59 196 -34 20 -115 21 -154 0z m168 -203 c-3 -66 -89 -117 -166
-97 -34 8 -48 44 -32 83 16 36 61 52 145 50 l55 -2 -2 -34z"/>
<path d="M3613 550 c-27 -16 -33 -17 -33 -5 0 8 -9 15 -20 15 -19 0 -20 -7
-20 -170 0 -163 1 -170 20 -170 19 0 20 7 20 126 0 69 5 134 10 145 18 33 62
49 103 38 19 -5 39 -17 43 -27 5 -9 11 -75 14 -147 4 -113 7 -130 23 -133 15
-3 17 8 17 118 0 133 10 168 54 188 36 16 84 4 104 -26 13 -20 17 -51 17 -151
0 -119 1 -126 20 -126 19 0 20 7 20 125 0 141 -11 182 -56 205 -53 28 -125 12
-152 -32 -7 -11 -16 -7 -43 17 -42 36 -93 40 -141 10z"/>
<path d="M922 423 c4 -161 14 -186 81 -204 46 -12 105 0 127 26 17 21 30 19
30 -6 0 -14 5 -19 18 -17 15 3 17 19 17 168 0 149 -2 165 -17 168 -16 3 -18
-7 -18 -103 0 -150 -29 -205 -106 -205 -80 0 -94 29 -94 190 0 115 -1 120 -21
120 -20 0 -21 -3 -17 -137z"/>
</g>
</svg>
